<svg viewBox="0 0 1000 500" xmlns="http://www.w3.org/2000/svg">
  <defs>
    <linearGradient id="bg" x1="0" y1="0" x2="1" y2="1">
      <stop offset="0" stop-color="#122a52"/>
      <stop offset="1" stop-color="#274d8c"/>
    </linearGradient>
  </defs>
  <rect width="1000" height="500" fill="url(#bg)"/>
  <g opacity="0.10" stroke="#ffffff" stroke-width="2">
    <line x1="0" y1="140" x2="1000" y2="140"/>
    <line x1="0" y1="260" x2="1000" y2="260"/>
    <line x1="0" y1="380" x2="1000" y2="380"/>
  </g>

  <g fill="#f4f6fb" opacity="0.95">
    <rect x="80" y="260" width="140" height="180" rx="4"/>
    <rect x="240" y="200" width="110" height="240" rx="4"/>
    <rect x="370" y="150" width="90" height="290" rx="4"/>
    <rect x="480" y="230" width="130" height="210" rx="4"/>
    <rect x="630" y="190" width="100" height="250" rx="4"/>
    <rect x="750" y="270" width="150" height="170" rx="4"/>
  </g>
  <g fill="#e6a13a">
    <rect x="400" y="90" width="26" height="70" rx="6"/>
    <rect x="450" y="60" width="26" height="100" rx="6"/>
  </g>
  <g fill="#0a1c38" opacity="0.35">
    <rect x="100" y="300" width="30" height="40"/>
    <rect x="150" y="300" width="30" height="40"/>
    <rect x="260" y="250" width="30" height="40"/>
    <rect x="310" y="250" width="30" height="40"/>
    <rect x="500" y="270" width="30" height="40"/>
    <rect x="550" y="270" width="30" height="40"/>
  </g>

</svg>
