<?xml version="1.0" encoding="UTF-8"?>
<svg version="1.1" xmlns="http://www.w3.org/2000/svg" width="200" height="200">
<path d="M0 0 C66 0 132 0 200 0 C200 66 200 132 200 200 C134 200 68 200 0 200 C0 134 0 68 0 0 Z " fill="#FEFEFD" transform="translate(0,0)"/>
<path d="M0 0 C2.02408755 0.09002398 4.04544287 0.24641038 6.0625 0.4375 C7.16722656 0.53933594 8.27195313 0.64117187 9.41015625 0.74609375 C10.26480469 0.82988281 11.11945313 0.91367188 12 1 C12 2.98 12 4.96 12 7 C11.01 6.67 10.02 6.34 9 6 C8.62875 6.45375 8.2575 6.9075 7.875 7.375 C6 9 6 9 0 11 C13.86 11.495 13.86 11.495 28 12 C28 13.98 28 15.96 28 18 C27 19 27 19 25.05053711 19.11352539 C24.2178833 19.10828857 23.38522949 19.10305176 22.52734375 19.09765625 C21.62822266 19.09443359 20.72910156 19.09121094 19.80273438 19.08789062 C18.85720703 19.07951172 17.91167969 19.07113281 16.9375 19.0625 C15.98810547 19.05798828 15.03871094 19.05347656 14.06054688 19.04882812 C11.70696935 19.0370011 9.35351523 19.02052025 7 19 C7 20.98 7 22.96 7 25 C13.27 25 19.54 25 26 25 C26 26.65 26 28.3 26 30 C24 32 24 32 20.0859375 32.1953125 C18.51550649 32.18200376 16.94513779 32.15813602 15.375 32.125 C14.57320312 32.11597656 13.77140625 32.10695312 12.9453125 32.09765625 C10.96341477 32.07406223 8.98167019 32.03819065 7 32 C7 33.98 7 35.96 7 38 C7.59538574 37.98428955 8.19077148 37.9685791 8.80419922 37.95239258 C11.49437003 37.89014199 14.18438957 37.85104217 16.875 37.8125 C18.28072266 37.77479492 18.28072266 37.77479492 19.71484375 37.73632812 C21.05869141 37.72182617 21.05869141 37.72182617 22.4296875 37.70703125 C23.25710449 37.6913208 24.08452148 37.67561035 24.93701172 37.65942383 C25.95819092 37.82800903 25.95819092 37.82800903 27 38 C29 41 29 41 29 46 C20.585 46.495 20.585 46.495 12 47 C13.835625 47.45375 15.67125 47.9075 17.5625 48.375 C19.11130859 48.75785156 19.11130859 48.75785156 20.69140625 49.1484375 C32.42242466 51.63882965 44.10565624 52.37016769 56.0625 52.3125 C57.12910355 52.3117598 57.12910355 52.3117598 58.21725464 52.31100464 C69.91616704 52.28630786 81.26878197 51.37132445 92.80908203 49.36376953 C96.19427716 48.80170794 99.59244043 48.40203738 103 48 C100.58991241 50.41008759 99.27563356 50.5509028 95.96875 51.21875 C94.94007813 51.42798096 93.91140625 51.63721191 92.8515625 51.8527832 C91.74554688 52.06636475 90.63953125 52.27994629 89.5 52.5 C88.36304688 52.72067139 87.22609375 52.94134277 86.0546875 53.16870117 C54.28211681 59.18657309 13.60205604 62.08027867 -15 44 C-19.60670772 40.27422411 -23.43239963 36.51475612 -24.40625 30.484375 C-24.61352926 24.43873 -24.06480647 20.49522294 -20.046875 15.85546875 C-14.83919453 11.13476603 -9.05902657 7.00843237 -2 6 C-1.855625 5.195625 -1.71125 4.39125 -1.5625 3.5625 C-1 1 -1 1 0 0 Z " fill="#8EC243" transform="translate(59,74)"/>
<path d="M0 0 C4.186875 -0.061875 8.37375 -0.12375 12.6875 -0.1875 C13.99936279 -0.21481201 15.31122559 -0.24212402 16.6628418 -0.27026367 C17.70609619 -0.27775635 18.74935059 -0.28524902 19.82421875 -0.29296875 C20.88729248 -0.3086792 21.95036621 -0.32438965 23.0456543 -0.34057617 C27.57464185 0.18152429 31.15624121 2.44530151 34 6 C35.20784213 9.58158742 35.20154265 13.11955536 35.25 16.875 C35.27578125 18.06867188 35.3015625 19.26234375 35.328125 20.4921875 C34.95401658 24.49158469 34.27180049 26.68464888 32 30 C25.86313907 35.02939485 19.71693233 34.47453134 12.0625 34.25 C6.0915625 34.12625 6.0915625 34.12625 0 34 C0 22.78 0 11.56 0 0 Z " fill="#686868" transform="translate(126,86)"/>
<path d="M0 0 C1.16982422 0.02255859 2.33964844 0.04511719 3.54492188 0.06835938 C6.42708769 0.12717909 9.30663681 0.20932859 12.1875 0.3125 C11.8575 2.6225 11.5275 4.9325 11.1875 7.3125 C4.5875 7.3125 -2.0125 7.3125 -8.8125 7.3125 C-8.4825 8.3025 -8.1525 9.2925 -7.8125 10.3125 C-5.37227776 11.12193957 -3.06084466 11.7573123 -0.5625 12.3125 C9.46804863 14.59304863 9.46804863 14.59304863 13.1875 18.3125 C14.15527242 27.91089857 14.15527242 27.91089857 11.375 31.9375 C7.65317504 34.27693283 4.72428125 34.43197605 0.42578125 34.41015625 C-0.69248047 34.40693359 -1.81074219 34.40371094 -2.96289062 34.40039062 C-4.13013672 34.39201172 -5.29738281 34.38363281 -6.5 34.375 C-7.67884766 34.37048828 -8.85769531 34.36597656 -10.07226562 34.36132812 C-12.98572789 34.34953273 -15.89908863 34.3330727 -18.8125 34.3125 C-18.9375 31.4375 -18.9375 31.4375 -18.8125 28.3125 C-16.8125 26.3125 -16.8125 26.3125 -14.65771484 26.08544922 C-13.78840332 26.09592285 -12.9190918 26.10639648 -12.0234375 26.1171875 C-11.08242187 26.12363281 -10.14140625 26.13007812 -9.171875 26.13671875 C-8.18703125 26.15347656 -7.2021875 26.17023438 -6.1875 26.1875 C-5.19492188 26.19652344 -4.20234375 26.20554687 -3.1796875 26.21484375 C-0.72371866 26.23845884 1.73177168 26.27139201 4.1875 26.3125 C4.1875 24.9925 4.1875 23.6725 4.1875 22.3125 C3.47464844 22.19132812 2.76179688 22.07015625 2.02734375 21.9453125 C-0.92514201 21.42872684 -3.8693383 20.8797131 -6.8125 20.3125 C-7.52148438 20.17972656 -8.23046875 20.04695313 -8.9609375 19.91015625 C-12.04975392 19.20202148 -13.85254934 18.27758519 -16.25 16.1875 C-17.97838266 13.0072759 -18.31980742 10.92282477 -18.44140625 7.375 C-15.71411462 -1.56916136 -7.65823267 -0.27887122 0 0 Z " fill="#626261" transform="translate(108.8125,85.6875)"/>
<path d="M0 0 C9.9 0 19.8 0 30 0 C30 1.98 30 3.96 30 6 C29 7 29 7 27.05053711 7.11352539 C26.2178833 7.10828857 25.38522949 7.10305176 24.52734375 7.09765625 C23.62822266 7.09443359 22.72910156 7.09121094 21.80273438 7.08789062 C20.85720703 7.07951172 19.91167969 7.07113281 18.9375 7.0625 C17.98810547 7.05798828 17.03871094 7.05347656 16.06054688 7.04882812 C13.70696935 7.0370011 11.35351523 7.02052025 9 7 C9 8.98 9 10.96 9 13 C15.27 13 21.54 13 28 13 C28 14.65 28 16.3 28 18 C26 20 26 20 22.0859375 20.1953125 C20.51550649 20.18200376 18.94513779 20.15813602 17.375 20.125 C16.57320312 20.11597656 15.77140625 20.10695313 14.9453125 20.09765625 C12.96341477 20.07406223 10.98167019 20.03819065 9 20 C9 21.98 9 23.96 9 26 C9.59538574 25.98428955 10.19077148 25.9685791 10.80419922 25.95239258 C13.49437003 25.89014199 16.18438957 25.85104217 18.875 25.8125 C19.81214844 25.78736328 20.74929687 25.76222656 21.71484375 25.73632812 C22.61074219 25.72666016 23.50664063 25.71699219 24.4296875 25.70703125 C25.25710449 25.6913208 26.08452148 25.67561035 26.93701172 25.65942383 C27.61779785 25.77181396 28.29858398 25.8842041 29 26 C31 29 31 29 31 33 C26.58355402 33.11608127 22.16749983 33.1872132 17.75 33.25 C15.86861328 33.30027344 15.86861328 33.30027344 13.94921875 33.3515625 C12.14130859 33.37089844 12.14130859 33.37089844 10.296875 33.390625 C8.63156738 33.4220459 8.63156738 33.4220459 6.93261719 33.45410156 C4 33 4 33 1.63085938 31.39648438 C-0.5482202 28.19441175 -0.45823439 26.11936011 -0.390625 22.265625 C-0.38063477 21.09805664 -0.37064453 19.93048828 -0.36035156 18.72753906 C-0.32393555 17.24995117 -0.28751953 15.77236328 -0.25 14.25 C-0.1675 9.5475 -0.085 4.845 0 0 Z " fill="#5E5E5E" transform="translate(57,86)"/>
<path d="M0 0 C6.31125 -0.061875 6.31125 -0.061875 12.75 -0.125 C14.0709668 -0.14320801 15.39193359 -0.16141602 16.75292969 -0.18017578 C17.79868164 -0.1851709 18.84443359 -0.19016602 19.921875 -0.1953125 C20.99018555 -0.20578613 22.05849609 -0.21625977 23.15917969 -0.22705078 C25.97979105 -0.00161519 27.60787463 0.54151006 30 2 C30 3.65 30 5.3 30 7 C28.35 7 26.7 7 25 7 C24.67 7.66 24.34 8.32 24 9 C23.34 8.67 22.68 8.34 22 8 C19.795636 7.77049681 17.58607827 7.58924067 15.375 7.4375 C13.27125 7.293125 11.1675 7.14875 9 7 C9 13.27 9 19.54 9 26 C12.96 26 16.92 26 21 26 C21 27.32 21 28.64 21 30 C20.34 30.33 19.68 30.66 19 31 C19 31.66 19 32.32 19 33 C12.73 33 6.46 33 0 33 C0 22.11 0 11.22 0 0 Z " fill="#5F5F5F" transform="translate(126,86)"/>
<path d="M0 0 C0 0.33 0 0.66 0 1 C-0.67377686 0.9292627 -1.34755371 0.85852539 -2.04174805 0.78564453 C-12.28233323 -0.15258797 -22.49132214 -0.15197506 -32.76733398 -0.13037109 C-35.82345469 -0.12498068 -38.87943045 -0.1303605 -41.93554688 -0.13671875 C-43.90104199 -0.13605839 -45.86653701 -0.13477811 -47.83203125 -0.1328125 C-48.73427933 -0.13483673 -49.6365274 -0.13686096 -50.56611633 -0.13894653 C-55.79329316 -0.11975095 -60.84741837 0.07277757 -66 1 C-66.33 1.66 -66.66 2.32 -67 3 C-67.66 2.67 -68.32 2.34 -69 2 C-69.33 3.65 -69.66 5.3 -70 7 C-71.98 7 -73.96 7 -76 7 C-76 6.34 -76 5.68 -76 5 C-77.65 5 -79.3 5 -81 5 C-81 5.66 -81 6.32 -81 7 C-84 7 -87 7 -90 7 C-90 4.69 -90 2.38 -90 0 C-62.59240058 -8.73095272 -27.51859881 -7.59817254 0 0 Z " fill="#9AC35B" transform="translate(162,74)"/>
<path d="M0 0 C0.02505615 0.86278564 0.0501123 1.72557129 0.07592773 2.61450195 C0.17111385 5.81823769 0.27034444 9.02181537 0.37231445 12.2253418 C0.41560218 13.61135983 0.45728164 14.99742906 0.49731445 16.38354492 C0.55516584 18.37691798 0.61929776 20.37010565 0.68359375 22.36328125 C0.72025146 23.56251221 0.75690918 24.76174316 0.79467773 25.99731445 C0.87733025 29.04994349 0.87733025 29.04994349 2 32 C-4.02542008 29.92876185 -11.24005126 26.26392824 -15 21 C-16.52177201 16.19440418 -16.52177201 16.19440418 -16 13 C-13.31950345 8.36461903 -5.93335812 0 0 0 Z " fill="#FBFDF8" transform="translate(57,86)"/>
<path d="M0 0 C12.625 -0.25 12.625 -0.25 16 2 C16.27668225 4.59426798 16.37295242 6.91263646 16.3125 9.5 C16.31733398 10.53447266 16.31733398 10.53447266 16.32226562 11.58984375 C16.26712592 16.73287408 16.26712592 16.73287408 14 19 C9.32380812 19.28034724 4.68783389 19.08523334 0 19 C0 12.73 0 6.46 0 0 Z " fill="#FAFAFA" transform="translate(135,93)"/>
<path d="M0 0 C2.02408755 0.09002398 4.04544287 0.24641038 6.0625 0.4375 C7.16722656 0.53933594 8.27195312 0.64117187 9.41015625 0.74609375 C10.26480469 0.82988281 11.11945313 0.91367188 12 1 C12 2.98 12 4.96 12 7 C11.01 6.67 10.02 6.34 9 6 C8.59007813 6.45761719 8.18015625 6.91523437 7.7578125 7.38671875 C5.84656453 9.14081966 4.27879788 9.86907395 1.875 10.8125 C-5.12152078 13.78659108 -11.18950468 18.12668135 -17 23 C-17 21.02 -17 19.04 -17 17 C-17.66 17 -18.32 17 -19 17 C-19 17.66 -19 18.32 -19 19 C-19.66 19 -20.32 19 -21 19 C-19.51453018 15.21121744 -17.46285806 13.62334949 -14.125 11.375 C-13.26132812 10.78460938 -12.39765625 10.19421875 -11.5078125 9.5859375 C-5.83743842 6 -5.83743842 6 -2 6 C-1.855625 5.195625 -1.71125 4.39125 -1.5625 3.5625 C-1 1 -1 1 0 0 Z " fill="#91C246" transform="translate(59,74)"/>
<path d="M0 0 C0.66 0 1.32 0 2 0 C3.07305731 3.21917192 2.88353227 4.59446832 2.375 7.875 C1.98650222 11.29676887 1.87532778 12.70702028 3.25 15.9375 C4.92788259 17.98501915 4.92788259 17.98501915 6.6875 19.625 C8 21 8 21 8 24 C9.98 24.66 11.96 25.32 14 26 C13.67 26.66 13.34 27.32 13 28 C9.22192534 28.55096922 7.12202726 28.72481323 3.859375 26.6171875 C-4.70392424 19.29080926 -4.70392424 19.29080926 -5.23828125 13.3515625 C-5.43042378 5.64563567 -5.43042378 5.64563567 -3 2 C-2.01 2 -1.02 2 0 2 C0 1.34 0 0.68 0 0 Z " fill="#94C14D" transform="translate(40,91)"/>
<path d="M0 0 C0.928125 0 1.85625 0 2.8125 0 C5 0 5 0 8 1 C9.33106622 1.34227417 10.66400079 1.67751743 12 2 C11.01 2 10.02 2 9 2 C8.67 2.66 8.34 3.32 8 4 C7.34 3.67 6.68 3.34 6 3 C5.67 4.65 5.34 6.3 5 8 C3.02 8 1.04 8 -1 8 C-1 7.34 -1 6.68 -1 6 C-2.65 6 -4.3 6 -6 6 C-6 6.66 -6 7.32 -6 8 C-9 8 -12 8 -15 8 C-15 5.69 -15 3.38 -15 1 C-9.40020988 -0.983259 -5.85268923 -0.94398213 0 0 Z " fill="#C1CAB1" transform="translate(87,73)"/>
<path d="M0 0 C-19.37054651 5.13593225 -38.14323934 8.21680218 -58.25 8.0625 C-59.38824219 8.05798828 -60.52648437 8.05347656 -61.69921875 8.04882812 C-64.46620409 8.03720214 -67.23307158 8.02086431 -70 8 C-70 7.34 -70 6.68 -70 6 C-61.09 5.67 -52.18 5.34 -43 5 C-43 4.67 -43 4.34 -43 4 C-41.76080811 3.87939209 -41.76080811 3.87939209 -40.49658203 3.75634766 C-37.38370315 3.45094135 -34.27131675 3.1409933 -31.15917969 2.828125 C-29.16895862 2.62938953 -27.17823268 2.43573095 -25.1875 2.2421875 C-18.70158397 1.58704447 -12.38419059 0.8353055 -6.04638672 -0.71728516 C-3.75559309 -1.03376559 -2.18745046 -0.69788617 0 0 Z " fill="#A5C572" transform="translate(162,123)"/>
<path d="M0 0 C4.4361658 1.44433305 8.82092168 2.91046084 13 5 C15.0307477 5.15411106 17.06606421 5.24982453 19.1015625 5.31640625 C20.31328125 5.35830078 21.525 5.40019531 22.7734375 5.44335938 C24.04445313 5.48267578 25.31546875 5.52199219 26.625 5.5625 C27.90375 5.60568359 29.1825 5.64886719 30.5 5.69335938 C33.66655348 5.79969886 36.83318753 5.90172833 40 6 C40 6.33 40 6.66 40 7 C30.76 7.33 21.52 7.66 12 8 C12.33 8.33 12.66 8.66 13 9 C13.66 9.66 14.32 10.32 15 11 C17.32275177 11.40047444 19.65739357 11.7397104 22 12 C22 12.66 22 13.32 22 14 C14.50630773 13.55919457 7.77823324 11.19502624 1 8 C0.67 7.34 0.34 6.68 0 6 C1.65 5.67 3.3 5.34 5 5 C3.7625 4.319375 3.7625 4.319375 2.5 3.625 C1.675 3.08875 0.85 2.5525 0 2 C0 1.34 0 0.68 0 0 Z " fill="#94B65F" transform="translate(48,113)"/>
<path d="M0 0 C2.02408755 0.09002398 4.04544287 0.24641038 6.0625 0.4375 C7.71958984 0.59025391 7.71958984 0.59025391 9.41015625 0.74609375 C10.26480469 0.82988281 11.11945313 0.91367188 12 1 C12 2.98 12 4.96 12 7 C11.01 6.67 10.02 6.34 9 6 C8.3503125 6.7115625 8.3503125 6.7115625 7.6875 7.4375 C6 9 6 9 3 10 C0.375 9.1875 0.375 9.1875 -2 8 C-2.33 7.34 -2.66 6.68 -3 6 C-1.44444444 1.44444444 -1.44444444 1.44444444 0 0 Z " fill="#ADB0A8" transform="translate(59,74)"/>
<path d="M0 0 C9.52149445 0.52296087 18.67490566 2.1184137 28 4 C28 4.33 28 4.66 28 5 C27.28561768 4.93433838 26.57123535 4.86867676 25.83520508 4.80102539 C15.79197151 3.94743284 5.76069934 3.67624759 -4.3125 3.4375 C-6.035815 3.39418595 -7.7591224 3.35056819 -9.48242188 3.30664062 C-13.65486869 3.20093287 -17.8273962 3.09930969 -22 3 C-22 2.67 -22 2.34 -22 2 C-14.74 2 -7.48 2 0 2 C0 1.34 0 0.68 0 0 Z " fill="#B7CD8F" transform="translate(134,70)"/>
<path d="M0 0 C8.36948823 0.74833071 16.6769795 1.85697185 25 3 C25 3.33 25 3.66 25 4 C21.04 4 17.08 4 13 4 C13 4.66 13 5.32 13 6 C14.65 6 16.3 6 18 6 C18 6.33 18 6.66 18 7 C15.43719792 6.85845864 12.87484515 6.71191438 10.3125 6.5625 C9.59126953 6.52318359 8.87003906 6.48386719 8.12695312 6.44335938 C4.33292718 6.21814322 0.71348508 5.87160695 -3 5 C-3 4.67 -3 4.34 -3 4 C0.3 3.67 3.6 3.34 7 3 C4.69 2.34 2.38 1.68 0 1 C0 0.67 0 0.34 0 0 Z " fill="#95C054" transform="translate(74,123)"/>
<path d="M0 0 C0.66 0 1.32 0 2 0 C3 3 3 3 2 6 C1.01 6 0.02 6 -1 6 C-0.814375 7.258125 -0.62875 8.51625 -0.4375 9.8125 C0.00732761 12.82744268 -0.00156154 14.00468461 -1 17 C-1.66 17 -2.32 17 -3 17 C-4.17673198 14.64653604 -4.16623866 13.1193967 -4.1875 10.5 C-4.20167969 9.7059375 -4.21585938 8.911875 -4.23046875 8.09375 C-4 6 -4 6 -2 4 C-2 3.34 -2 2.68 -2 2 C-1.34 2 -0.68 2 0 2 C0 1.34 0 0.68 0 0 Z " fill="#8AC339" transform="translate(40,91)"/>
<path d="M0 0 C1.98 0 3.96 0 6 0 C6 0.66 6 1.32 6 2 C7.98 2.66 9.96 3.32 12 4 C11.67 4.66 11.34 5.32 11 6 C4.67741935 6.36476427 4.67741935 6.36476427 1.5625 4.6875 C0 3 0 3 0 0 Z " fill="#8FC23F" transform="translate(42,113)"/>
<path d="M0 0 C1.98 0 3.96 0 6 0 C6.38218767 1.65614657 6.71395102 3.32457024 7 5 C6 6 6 6 2.9375 6.0625 C1.4834375 6.0315625 1.4834375 6.0315625 0 6 C0 4.02 0 2.04 0 0 Z " fill="#9EA09E" transform="translate(86,75)"/>
<path d="M0 0 C0.33 0.99 0.66 1.98 1 3 C1.99 2.67 2.98 2.34 4 2 C4.99 3.485 4.99 3.485 6 5 C3.03 7.475 3.03 7.475 0 10 C0 8.02 0 6.04 0 4 C-0.66 4 -1.32 4 -2 4 C-2 4.66 -2 5.32 -2 6 C-2.66 6 -3.32 6 -4 6 C-2.84826645 3.53199953 -1.95216435 1.95216435 0 0 Z " fill="#99C553" transform="translate(42,87)"/>
<path d="M0 0 C0 3.01490557 -0.51952735 4.86864114 -1.5 7.6875 C-1.91765625 8.89986328 -1.91765625 8.89986328 -2.34375 10.13671875 C-2.5603125 10.75160156 -2.776875 11.36648437 -3 12 C-2.34 12 -1.68 12 -1 12 C-1 12.99 -1 13.98 -1 15 C-0.34 15 0.32 15 1 15 C0.67 15.99 0.34 16.98 0 18 C-2.97109775 15.69979529 -4.35144427 13.76393226 -5.0625 10.125 C-5.3692565 6.71233392 -4.74860547 5.12084235 -2.5625 2.5 C-1.716875 1.675 -0.87125 0.85 0 0 Z " fill="#F0FBD9" transform="translate(46,93)"/>
<path d="M0 0 C1.98 0 3.96 0 6 0 C6 1.32 6 2.64 6 4 C4.68 4 3.36 4 2 4 C2 4.66 2 5.32 2 6 C1.34 6 0.68 6 0 6 C0 4.02 0 2.04 0 0 Z " fill="#8B8B8A" transform="translate(79,75)"/>
<path d="M0 0 C2.64 0 5.28 0 8 0 C8 0.66 8 1.32 8 2 C9.423125 1.938125 9.423125 1.938125 10.875 1.875 C14 2 14 2 16 4 C10.39538469 3.57910004 5.27913453 3.08386889 0 1 C0 0.67 0 0.34 0 0 Z " fill="#EEFCDA" transform="translate(67,120)"/>
<path d="M0 0 C2.66666667 1.33333333 5.33333333 2.66666667 8 4 C2.25 7 2.25 7 0 7 C0 6.34 0 5.68 0 5 C0.99 5 1.98 5 3 5 C3 4.34 3 3.68 3 3 C1.35 2.67 -0.3 2.34 -2 2 C-1.34 1.34 -0.68 0.68 0 0 Z " fill="#94BD54" transform="translate(54,80)"/>
<path d="M0 0 C0.99 0 1.98 0 3 0 C3.04254356 1.99954746 3.04080783 4.00041636 3 6 C2 7 2 7 -0.5625 7.0625 C-1.7690625 7.0315625 -1.7690625 7.0315625 -3 7 C-3 6.34 -3 5.68 -3 5 C-1.68 4.34 -0.36 3.68 1 3 C0.67 2.01 0.34 1.02 0 0 Z " fill="#666666" transform="translate(84,86)"/>
<path d="M0 0 C2.97 0.495 2.97 0.495 6 1 C6 1.66 6 2.32 6 3 C3.625 3.625 3.625 3.625 1 4 C0.34 3.34 -0.32 2.68 -1 2 C-0.67 1.34 -0.34 0.68 0 0 Z M-2 3 C-1.34 3.66 -0.68 4.32 0 5 C-0.66 5 -1.32 5 -2 5 C-2 4.34 -2 3.68 -2 3 Z " fill="#89C337" transform="translate(51,82)"/>
</svg>
